<?xml version="1.0" encoding="utf-8"?>
<!-- Generator: Adobe Illustrator 16.0.3, SVG Export Plug-In . SVG Version: 6.00 Build 0)  -->
<!DOCTYPE svg PUBLIC "-//W3C//DTD SVG 1.0//EN" "http://www.w3.org/TR/2001/REC-SVG-20010904/DTD/svg10.dtd">
<svg version="1.0" id="Layer_1" xmlns="http://www.w3.org/2000/svg" xmlns:xlink="http://www.w3.org/1999/xlink" x="0px" y="0px"
	 width="180.452px" height="97.63px" viewBox="0 0 180.452 97.63" enable-background="new 0 0 180.452 97.63" xml:space="preserve">
<g>
	<path fill="#FFFFFF" d="M21.913,73.075c-0.459,3.456-1.103,6.646-1.929,9.566c-0.827,2.923-1.777,5.466-2.851,7.635
		c-1.073,2.167-2.241,3.893-3.502,5.176c-1.261,1.285-2.558,2.001-3.889,2.151c-2.258,0.256-4.115-1.33-5.574-4.758
		c-1.458-3.426-2.581-8.612-3.367-15.552c-0.112-0.987-0.21-1.859-0.296-2.614c-0.085-0.756-0.157-1.514-0.213-2.273
		c-0.058-0.758-0.107-1.58-0.148-2.466c-0.041-0.884-0.089-1.949-0.142-3.194c-0.006-0.312-0.001-0.85,0.014-1.619
		c0.016-0.765,0.079-1.64,0.187-2.621c0.109-0.979,0.285-2.008,0.529-3.082c0.246-1.075,0.603-2.067,1.071-2.98
		c0.467-0.912,1.054-1.689,1.758-2.331c0.703-0.642,1.59-1.023,2.663-1.145l1.052-0.025c1.274-0.145,2.28,0.016,3.022,0.476
		c0.741,0.464,1.163,1.143,1.264,2.038l-0.203,25.376l0.56-0.111c0.917-3.289,1.697-6.291,2.343-9.005
		c0.645-2.713,1.249-5.147,1.811-7.306c0.562-2.155,1.125-4.048,1.688-5.673c0.563-1.625,1.221-2.997,1.974-4.114
		c0.752-1.115,1.642-1.989,2.671-2.621c1.028-0.634,2.293-1.034,3.798-1.205c1.274-0.144,2.28,0.017,3.022,0.478
		c0.74,0.464,1.162,1.143,1.264,2.036l-0.725,25.437l0.604-0.115l7.577-25.884c0.249-0.903,0.915-1.751,1.998-2.546
		c1.082-0.794,2.419-1.282,4.011-1.463c1.649-0.187,3.022,0.025,4.118,0.636c1.095,0.61,1.707,1.485,1.836,2.627
		c0.098,0.863,0.065,1.805-0.099,2.822c-0.162,1.02-0.355,1.971-0.577,2.854c-0.223,0.885-0.445,1.644-0.666,2.277
		c-0.222,0.636-0.343,0.984-0.366,1.048c-0.497,1.307-0.953,2.515-1.37,3.624c-0.417,1.11-0.782,2.09-1.096,2.937
		c-0.387,0.98-0.722,1.895-1.008,2.738c0.542,1.158,1.184,2.178,1.928,3.062c0.641,0.742,1.405,1.403,2.293,1.989
		c0.886,0.587,1.896,0.818,3.023,0.689c0.954-0.109,2.023-0.503,3.207-1.183c1.183-0.683,2.287-1.424,3.309-2.226
		c1.215-0.919,2.447-1.949,3.695-3.09l1.232,10.873c-1.764,1.512-3.622,2.771-5.575,3.772c-1.954,1.002-3.871,1.608-5.751,1.821
		c-1.476,0.167-2.895,0.14-4.252-0.08c-1.359-0.223-2.583-0.676-3.672-1.366c-1.09-0.687-2.003-1.64-2.742-2.852
		s-1.227-2.729-1.461-4.545c-0.704,2.581-1.475,4.956-2.313,7.129c-0.839,2.172-1.739,4.063-2.7,5.672
		c-0.961,1.608-1.973,2.894-3.036,3.858c-1.065,0.964-2.174,1.511-3.333,1.644c-0.404,0.045-0.797-0.246-1.176-0.876
		c-0.379-0.627-0.734-1.493-1.063-2.599c-0.33-1.102-0.646-2.393-0.945-3.875c-0.3-1.481-0.582-3.05-0.841-4.708
		c-0.262-1.657-0.507-3.364-0.734-5.118c-0.229-1.755-0.437-3.466-0.625-5.133L21.913,73.075z"/>
	<path fill="#FFFFFF" d="M73.813,61.195c0.999-1.8,2.128-3.739,3.387-5.819c1.26-2.079,2.592-4.034,3.997-5.864
		c1.405-1.831,2.833-3.385,4.288-4.657c1.452-1.274,2.874-1.99,4.263-2.146c0.347-0.04,0.746-0.016,1.195,0.074
		c0.451,0.09,0.892,0.298,1.325,0.624c0.434,0.326,0.816,0.806,1.151,1.439c0.335,0.634,0.563,1.475,0.683,2.523
		c0.236,2.098,0.193,4.173-0.131,6.224c-0.325,2.052-0.699,4.11-1.125,6.172c-0.426,2.065-0.79,4.161-1.09,6.287
		c-0.303,2.128-0.325,4.318-0.07,6.568c0.14,1.235,0.426,2.202,0.855,2.901c0.432,0.702,0.922,1.022,1.473,0.96
		c0.695-0.079,1.416-0.316,2.163-0.714c0.745-0.396,1.482-0.887,2.207-1.468c0.725-0.582,1.428-1.232,2.109-1.951
		c0.682-0.716,1.314-1.453,1.906-2.205c1.411-1.755,2.77-3.721,4.077-5.9l2.134,12.226c-0.474,0.491-1.069,1.104-1.792,1.842
		c-0.724,0.739-1.528,1.525-2.413,2.36c-0.89,0.836-1.855,1.685-2.899,2.554c-1.046,0.868-2.108,1.653-3.187,2.353
		c-1.078,0.701-2.168,1.302-3.269,1.801c-1.103,0.499-2.175,0.809-3.215,0.926c-1.592,0.18-3.026-0.117-4.302-0.896
		c-1.275-0.777-2.369-1.824-3.28-3.144c-0.912-1.316-1.651-2.786-2.215-4.412c-0.565-1.622-0.932-3.175-1.099-4.656
		c-0.112-0.986-0.115-2.103-0.006-3.35c0.107-1.246,0.273-2.508,0.495-3.782c0.222-1.273,0.491-2.522,0.806-3.745
		c0.315-1.225,0.617-2.319,0.902-3.29c0.287-0.968,0.541-1.765,0.764-2.383s0.374-0.979,0.449-1.082l-0.928-0.034
		c-0.454,0.395-1.188,1.353-2.203,2.874c-1.015,1.521-2.142,3.423-3.377,5.701c-1.238,2.28-2.495,4.828-3.772,7.645
		c-1.28,2.816-2.397,5.701-3.352,8.652c-0.48,1.461-0.864,2.729-1.152,3.808c-0.288,1.081-0.589,1.974-0.905,2.682
		c-0.315,0.707-0.686,1.258-1.11,1.648c-0.425,0.393-0.999,0.629-1.721,0.711c-0.955,0.107-1.742-0.1-2.358-0.625
		c-0.617-0.522-1.125-1.254-1.523-2.192c-0.4-0.939-0.713-2.02-0.939-3.245c-0.228-1.224-0.413-2.482-0.561-3.778
		c-0.232-2.068-0.518-4.776-0.854-8.13c-0.335-3.35-0.619-7.075-0.848-11.174c-0.231-4.099-0.383-8.423-0.459-12.976
		c-0.076-4.553,0.034-9.072,0.333-13.56c0.299-4.485,0.821-8.792,1.57-12.923c0.748-4.13,1.812-7.813,3.19-11.046
		c1.377-3.234,3.123-5.876,5.236-7.927c2.111-2.053,4.674-3.25,7.683-3.59c1.563-0.178,2.872-0.074,3.927,0.305
		c1.054,0.381,1.928,0.984,2.623,1.811c0.694,0.828,1.228,1.852,1.603,3.076c0.373,1.223,0.646,2.606,0.821,4.148
		c0.258,2.283,0.241,4.846-0.053,7.692c-0.292,2.844-0.768,5.82-1.427,8.925c-0.661,3.106-1.453,6.265-2.379,9.479
		c-0.927,3.213-1.892,6.337-2.895,9.371c-1.005,3.036-2.007,5.907-3.005,8.612c-0.997,2.707-1.878,5.087-2.642,7.144L73.813,61.195z
		 M74.437,32.163c1.174-4.913,1.96-9.031,2.36-12.358c0.4-3.326,0.513-5.76,0.338-7.303c-0.266-2.344-0.687-3.483-1.267-3.417
		c-0.752,0.086-1.718,1.523-2.898,4.312c-1.178,2.79-2.484,6.796-3.913,12.02c-0.302,1.752-0.557,3.563-0.77,5.43
		c-0.214,1.867-0.385,3.723-0.513,5.564c-0.129,1.842-0.232,3.651-0.31,5.424c-0.077,1.774-0.128,3.46-0.153,5.056
		c-0.076,3.726-0.046,7.364,0.093,10.909c0.562-2.031,1.175-4.24,1.844-6.63c0.667-2.388,1.324-4.75,1.967-7.088
		c0.643-2.337,1.25-4.547,1.821-6.627C73.606,35.374,74.075,33.61,74.437,32.163z"/>
	<path fill="#FFFFFF" d="M121.268,84.968c-2.72,0.31-5.16,0.054-7.318-0.764c-2.161-0.817-4.02-2.036-5.582-3.656
		c-1.56-1.619-2.814-3.555-3.757-5.807c-0.944-2.25-1.561-4.657-1.851-7.219c-0.196-1.727-0.244-3.573-0.145-5.536
		c0.1-1.964,0.371-3.908,0.813-5.834c0.44-1.924,1.06-3.782,1.852-5.575c0.793-1.792,1.777-3.404,2.949-4.833
		c1.171-1.429,2.531-2.614,4.082-3.556c1.547-0.941,3.322-1.525,5.32-1.751c1.618-0.183,3.155-0.077,4.607,0.322
		c1.453,0.397,2.748,1.04,3.893,1.926c1.139,0.886,2.077,2.007,2.82,3.359c0.737,1.354,1.208,2.909,1.408,4.667
		c0.217,1.913-0.008,3.877-0.674,5.889c-0.667,2.011-1.685,3.955-3.056,5.829c-1.373,1.873-3.06,3.595-5.065,5.165
		c-2.008,1.571-4.227,2.868-6.659,3.895c0.527,0.784,1.034,1.43,1.517,1.937c0.481,0.508,0.959,0.892,1.427,1.151
		c0.469,0.259,0.948,0.424,1.441,0.492c0.49,0.069,1.011,0.073,1.561,0.009c1.736-0.194,3.526-0.772,5.367-1.73
		c1.842-0.958,3.609-2.097,5.307-3.414c1.699-1.316,3.284-2.722,4.756-4.218c1.472-1.492,2.706-2.891,3.702-4.19l6.302,5.564
		c-2.227,3.097-4.652,5.887-7.271,8.37c-1.141,1.064-2.375,2.128-3.708,3.185c-1.333,1.058-2.747,2.021-4.246,2.895
		c-1.496,0.872-3.07,1.613-4.717,2.221C124.697,84.368,123.006,84.772,121.268,84.968z M113.032,63.876
		c1.042-0.116,2.143-0.531,3.31-1.242c1.167-0.709,2.226-1.57,3.181-2.586c0.957-1.013,1.734-2.085,2.341-3.217
		c0.604-1.129,0.85-2.189,0.737-3.177c-0.155-1.388-0.524-2.501-1.103-3.343c-0.578-0.84-1.217-1.221-1.911-1.143
		c-1.245,0.142-2.279,0.508-3.107,1.102c-0.828,0.594-1.49,1.317-1.996,2.172c-0.505,0.852-0.88,1.803-1.128,2.846
		c-0.249,1.044-0.408,2.084-0.481,3.125c-0.072,1.039-0.084,2.039-0.034,3.002C112.891,62.377,112.953,63.197,113.032,63.876z"/>
	<path fill="#FFFFFF" d="M155.436,81.099c-2.723,0.309-5.162,0.053-7.321-0.764c-2.158-0.818-4.019-2.037-5.58-3.657
		c-1.561-1.619-2.813-3.556-3.759-5.806c-0.94-2.253-1.559-4.659-1.849-7.221c-0.196-1.727-0.246-3.572-0.146-5.535
		c0.101-1.964,0.371-3.909,0.813-5.833c0.442-1.925,1.06-3.783,1.854-5.576c0.791-1.793,1.776-3.403,2.946-4.833
		c1.173-1.429,2.534-2.614,4.082-3.556c1.55-0.94,3.323-1.524,5.32-1.75c1.619-0.184,3.157-0.077,4.609,0.321
		c1.451,0.398,2.748,1.04,3.89,1.927c1.14,0.886,2.079,2.005,2.82,3.358c0.74,1.354,1.21,2.909,1.406,4.668
		c0.219,1.914-0.006,3.875-0.672,5.888c-0.666,2.014-1.685,3.955-3.055,5.829c-1.37,1.873-3.06,3.595-5.065,5.166
		c-2.006,1.57-4.227,2.869-6.66,3.894c0.528,0.783,1.035,1.429,1.517,1.938c0.483,0.506,0.96,0.891,1.428,1.149
		c0.47,0.26,0.948,0.424,1.439,0.493c0.495,0.069,1.014,0.072,1.564,0.011c1.736-0.195,3.523-0.774,5.364-1.733
		c1.842-0.957,3.612-2.096,5.308-3.413c1.698-1.317,3.284-2.723,4.757-4.217c1.471-1.495,2.704-2.892,3.702-4.191l6.302,5.563
		c-2.229,3.098-4.654,5.887-7.275,8.371c-1.139,1.066-2.375,2.128-3.705,3.185c-1.332,1.056-2.749,2.021-4.244,2.894
		c-1.499,0.873-3.072,1.613-4.72,2.223C158.864,80.5,157.17,80.902,155.436,81.099z M147.197,60.006
		c1.042-0.118,2.146-0.53,3.313-1.243c1.163-0.709,2.225-1.57,3.181-2.585c0.954-1.014,1.735-2.087,2.34-3.218
		c0.604-1.129,0.851-2.189,0.738-3.177c-0.157-1.388-0.525-2.502-1.104-3.343c-0.579-0.841-1.215-1.222-1.909-1.143
		c-1.248,0.141-2.282,0.508-3.11,1.102c-0.824,0.594-1.49,1.317-1.995,2.171c-0.503,0.854-0.88,1.803-1.128,2.846
		c-0.247,1.044-0.409,2.085-0.481,3.125c-0.071,1.038-0.084,2.039-0.032,3.002C147.055,58.506,147.121,59.328,147.197,60.006z"/>
</g>
</svg>
